<svg width="75" height="80" viewBox="0 0 75 80" fill="none" xmlns="http://www.w3.org/2000/svg">
<path d="M48.4484 65.9C48.4484 72.0305 43.5467 77 37.4999 77C31.4534 77 26.5516 72.0305 26.5516 65.9M44.0566 18.6827C45.6455 17.018 46.6236 14.7498 46.6236 12.25C46.6236 7.14137 42.5391 3 37.4999 3C32.461 3 28.3763 7.14137 28.3763 12.25C28.3763 14.7498 29.3544 17.018 30.9436 18.6827M3.00071 26.395C2.94834 21.025 5.804 16.0103 10.4173 13.3713M71.9993 26.395C72.0518 21.025 69.1961 16.0103 64.5828 13.3713M59.3969 37.04C59.3969 31.9372 57.09 27.0435 52.9836 23.4352C48.8772 19.8271 43.3073 17.8 37.4999 17.8C31.6924 17.8 26.123 19.8271 22.0166 23.4352C17.9101 27.0435 15.6031 31.9372 15.6031 37.04C15.6031 45.4827 13.5379 51.6572 10.9611 56.0754C8.02431 61.1107 6.55587 63.6286 6.61386 64.2298C6.6802 64.918 6.80235 65.1352 7.35281 65.5433C7.83392 65.9 10.2511 65.9 15.0855 65.9H59.9147C64.7488 65.9 67.1663 65.9 67.6473 65.5433C68.1976 65.1352 68.3199 64.918 68.3863 64.2298C68.4443 63.6286 66.9758 61.1107 64.039 56.0754C61.4621 51.6572 59.3969 45.4827 59.3969 37.04Z" stroke="#356598" stroke-width="5" stroke-linecap="round" stroke-linejoin="round"/>
</svg>
