<svg width="32" height="32" viewBox="0 0 32 32" fill="none" xmlns="http://www.w3.org/2000/svg">
<path d="M10.666 2.66602V6.66602" stroke="#771D1D" stroke-width="1.5" stroke-miterlimit="10" stroke-linecap="round" stroke-linejoin="round"/>
<path d="M21.334 2.66602V6.66602" stroke="#771D1D" stroke-width="1.5" stroke-miterlimit="10" stroke-linecap="round" stroke-linejoin="round"/>
<path d="M4.66602 12.1191H27.3327" stroke="#771D1D" stroke-width="1.5" stroke-miterlimit="10" stroke-linecap="round" stroke-linejoin="round"/>
<path d="M23.9993 30.6667C26.9449 30.6667 29.3327 28.2789 29.3327 25.3333C29.3327 22.3878 26.9449 20 23.9993 20C21.0538 20 18.666 22.3878 18.666 25.3333C18.666 28.2789 21.0538 30.6667 23.9993 30.6667Z" stroke="#771D1D" stroke-width="1.5" stroke-miterlimit="10" stroke-linecap="round" stroke-linejoin="round"/>
<path d="M25.4243 26.8133L22.5977 24" stroke="#771D1D" stroke-width="1.5" stroke-miterlimit="10" stroke-linecap="round" stroke-linejoin="round"/>
<path d="M25.3989 24.0273L22.5723 26.854" stroke="#771D1D" stroke-width="1.5" stroke-miterlimit="10" stroke-linecap="round" stroke-linejoin="round"/>
<path d="M28 11.3327V21.8127C27.0267 20.706 25.6 19.9993 24 19.9993C21.0533 19.9993 18.6667 22.386 18.6667 25.3327C18.6667 26.3327 18.9467 27.2793 19.44 28.0793C19.72 28.5593 20.08 28.986 20.4933 29.3327H10.6667C6 29.3327 4 26.666 4 22.666V11.3327C4 7.33268 6 4.66602 10.6667 4.66602H21.3333C26 4.66602 28 7.33268 28 11.3327Z" stroke="#771D1D" stroke-width="1.5" stroke-miterlimit="10" stroke-linecap="round" stroke-linejoin="round"/>
<path d="M15.9933 18.2663H16.0053" stroke="#771D1D" stroke-width="2" stroke-linecap="round" stroke-linejoin="round"/>
<path d="M11.0597 18.2663H11.0717" stroke="#771D1D" stroke-width="2" stroke-linecap="round" stroke-linejoin="round"/>
<path d="M11.0597 22.2663H11.0717" stroke="#771D1D" stroke-width="2" stroke-linecap="round" stroke-linejoin="round"/>
</svg>
