<svg width="31" height="14" viewBox="0 0 31 14" fill="none" xmlns="http://www.w3.org/2000/svg">
<path d="M9.24918 10.021V9.0943C9.24918 9.0943 9.24918 6.88882 15.2669 6.88882C21.2845 6.88882 21.2845 9.0943 21.2845 9.0943V9.67801C21.2845 11.1162 22.3722 12.3408 23.8421 12.5545L26.8509 12.9968C28.6712 13.263 30.3111 11.8985 30.3111 10.1188V6.92192C30.3111 6.03882 30.0342 5.17077 29.3633 4.57201C27.6482 3.03901 23.4208 0.275391 15.2669 0.275391C6.61795 0.275391 2.38902 4.16131 0.884601 5.97564C0.410709 6.54882 0.222656 7.27546 0.222656 8.00961V10.9026C0.222656 12.8553 2.17238 14.2545 4.10406 13.6888L7.1129 12.8057C8.38113 12.4341 9.24918 11.3043 9.24918 10.0225V10.021Z" fill="white"/>
</svg>
