<svg width="9" height="14" viewBox="0 0 9 14" fill="none" xmlns="http://www.w3.org/2000/svg">
<path d="M7.94268 12.8082C8.00075 12.8662 8.04681 12.9352 8.07824 13.011C8.10966 13.0869 8.12584 13.1682 8.12584 13.2503C8.12584 13.3325 8.10966 13.4138 8.07824 13.4897C8.04681 13.5655 8.00075 13.6345 7.94268 13.6925C7.88461 13.7506 7.81567 13.7967 7.7398 13.8281C7.66393 13.8595 7.58261 13.8757 7.50049 13.8757C7.41837 13.8757 7.33705 13.8595 7.26118 13.8281C7.18531 13.7967 7.11637 13.7506 7.0583 13.6925L0.808304 7.44254C0.750194 7.38449 0.704095 7.31556 0.672642 7.23969C0.641189 7.16381 0.625 7.08248 0.625 7.00035C0.625 6.91821 0.641189 6.83688 0.672642 6.76101C0.704095 6.68514 0.750194 6.61621 0.808304 6.55816L7.0583 0.30816C7.17558 0.190885 7.33464 0.125 7.50049 0.125C7.66634 0.125 7.8254 0.190885 7.94268 0.30816C8.05995 0.425435 8.12584 0.584495 8.12584 0.750347C8.12584 0.9162 8.05995 1.07526 7.94268 1.19253L2.13409 7.00035L7.94268 12.8082Z" fill="black"/>
</svg>
