<svg width="25" height="24" viewBox="0 0 25 24" fill="none" xmlns="http://www.w3.org/2000/svg">
<path d="M2.07045 1.64551L22.702 22.3048M9.91536 9.58054C9.31631 10.2003 8.94764 11.0445 8.94764 11.9751C8.94764 13.8768 10.4872 15.4183 12.3862 15.4183C13.329 15.4183 14.1831 15.0384 14.8042 14.4233M6.08215 5.83147C3.90517 7.2698 2.247 9.43168 1.44922 11.9751C2.90976 16.6316 7.25422 20.0093 12.3865 20.0093C14.6661 20.0093 16.7904 19.3429 18.5755 18.194M11.24 3.99767C11.6171 3.96018 11.9996 3.94098 12.3865 3.94098C17.5188 3.94098 21.8632 7.31866 23.3237 11.9751C23.002 13.0012 22.5401 13.9651 21.9607 14.8445" stroke="#858484" stroke-width="2" stroke-linecap="round" stroke-linejoin="round"/>
</svg>
