<svg width="17" height="14" viewBox="0 0 17 14" fill="none" xmlns="http://www.w3.org/2000/svg">
<path fill-rule="evenodd" clip-rule="evenodd" d="M11.3541 5.85267C11.9571 5.85258 12.5441 5.66644 13.0276 5.32193C13.5112 4.97742 13.8656 4.49293 14.0381 3.94046H16.1541C16.3663 3.94046 16.5698 3.85988 16.7198 3.71643C16.8698 3.57299 16.9541 3.37844 16.9541 3.17558C16.9541 2.97272 16.8698 2.77817 16.7198 2.63472C16.5698 2.49128 16.3663 2.41069 16.1541 2.41069H14.0381C13.8653 1.85851 13.5108 1.37435 13.0272 1.03013C12.5437 0.685916 11.9569 0.5 11.3541 0.5C10.7513 0.5 10.1645 0.685916 9.68097 1.03013C9.19744 1.37435 8.84293 1.85851 8.6701 2.41069H1.7541C1.54193 2.41069 1.33845 2.49128 1.18842 2.63472C1.03839 2.77817 0.954102 2.97272 0.954102 3.17558C0.954102 3.37844 1.03839 3.57299 1.18842 3.71643C1.33845 3.85988 1.54193 3.94046 1.7541 3.94046H8.6701C8.84265 4.49293 9.19703 4.97742 9.68059 5.32193C10.1641 5.66644 10.7511 5.85258 11.3541 5.85267ZM1.7541 10.0595C1.54193 10.0595 1.33845 10.1401 1.18842 10.2836C1.03839 10.427 0.954102 10.6216 0.954102 10.8244C0.954102 11.0273 1.03839 11.2218 1.18842 11.3653C1.33845 11.5087 1.54193 11.5893 1.7541 11.5893H3.4701C3.64293 12.1415 3.99744 12.6256 4.48097 12.9699C4.9645 13.3141 5.55126 13.5 6.1541 13.5C6.75694 13.5 7.34371 13.3141 7.82724 12.9699C8.31077 12.6256 8.66527 12.1415 8.8381 11.5893H16.1541C16.3663 11.5893 16.5698 11.5087 16.7198 11.3653C16.8698 11.2218 16.9541 11.0273 16.9541 10.8244C16.9541 10.6216 16.8698 10.427 16.7198 10.2836C16.5698 10.1401 16.3663 10.0595 16.1541 10.0595H8.8381C8.66527 9.50735 8.31077 9.02319 7.82724 8.67898C7.34371 8.33476 6.75694 8.14884 6.1541 8.14884C5.55126 8.14884 4.9645 8.33476 4.48097 8.67898C3.99744 9.02319 3.64293 9.50735 3.4701 10.0595H1.7541Z" fill="white"/>
</svg>
