<svg width="490" height="5" viewBox="0 0 490 5" fill="none" xmlns="http://www.w3.org/2000/svg">
<path fill-rule="evenodd" clip-rule="evenodd" d="M11.264 4.07052C21.6493 3.76527 48.9425 3.75001 123.033 3.71948C238.728 3.67369 330.549 3.33793 356.069 2.84953C358.096 2.80374 195.92 2.46797 179.266 2.71217C153.302 3.10899 29.3116 2.77322 4.36151 2.31535C-2.7309 2.19325 -0.0712191 1.7659 4.55152 1.67433C11.7706 1.5217 31.1482 1.53697 84.2781 1.56749C121.64 1.58276 418.888 1.23172 451.374 0.605963C469.611 0.25493 480.693 -0.0655794 485.759 0.0107327C490.002 0.0717816 490.065 0.25493 486.393 0.758587C483.923 1.09436 486.709 1.29277 488.482 1.38434C491.205 1.53697 490.065 2.05589 486.646 2.46797C482.023 3.03268 474.044 3.01742 477.844 2.45271C478.667 2.33061 478.857 2.02536 475.944 2.08641C467.458 2.26956 407.489 3.52107 391.215 3.73474C217.451 6.05462 47.8659 4.3605 11.9605 4.92521C-0.767824 5.13888 5.05817 4.25367 11.264 4.07052Z" fill="#25B4F8"/>
</svg>
