<svg width="85" height="85" viewBox="0 0 85 85" fill="none" xmlns="http://www.w3.org/2000/svg">
<path d="M42.5 0C53.7717 0 64.5817 4.47767 72.552 12.448C80.5223 20.4183 85 31.2283 85 42.5C85 53.7717 80.5223 64.5817 72.552 72.552C64.5817 80.5223 53.7717 85 42.5 85C31.2283 85 20.4183 80.5223 12.448 72.552C4.47767 64.5817 0 53.7717 0 42.5C0 31.2283 4.47767 20.4183 12.448 12.448C20.4183 4.47767 31.2283 0 42.5 0ZM42.5 18.2143C41.7292 18.2136 40.9667 18.3737 40.2612 18.6844C39.5558 18.9951 38.9229 19.4494 38.4029 20.0185C37.883 20.5876 37.4875 21.2588 37.2416 21.9894C36.9957 22.72 36.9049 23.4938 36.975 24.2614L39.1911 48.5836C39.277 49.4013 39.6626 50.1582 40.2737 50.7084C40.8847 51.2586 41.6778 51.5631 42.5 51.5631C43.3222 51.5631 44.1153 51.2586 44.7263 50.7084C45.3374 50.1582 45.723 49.4013 45.8089 48.5836L48.0189 24.2614C48.089 23.4943 47.9983 22.721 47.7528 21.9909C47.5073 21.2607 47.1123 20.5897 46.5931 20.0208C46.0738 19.4518 45.4416 18.9973 44.7369 18.6862C44.0321 18.3752 43.2703 18.2145 42.5 18.2143ZM42.5 66.7857C43.7882 66.7857 45.0236 66.274 45.9345 65.3631C46.8454 64.4522 47.3571 63.2168 47.3571 61.9286C47.3571 60.6404 46.8454 59.4049 45.9345 58.4941C45.0236 57.5832 43.7882 57.0714 42.5 57.0714C41.2118 57.0714 39.9764 57.5832 39.0655 58.4941C38.1546 59.4049 37.6429 60.6404 37.6429 61.9286C37.6429 63.2168 38.1546 64.4522 39.0655 65.3631C39.9764 66.274 41.2118 66.7857 42.5 66.7857Z" fill="#356598"/>
</svg>
