<svg width="33" height="34" viewBox="0 0 33 34" fill="none" xmlns="http://www.w3.org/2000/svg">
<path d="M14.7542 23.194C14.7542 22.9633 14.7997 22.7348 14.8885 22.5218C14.9774 22.3087 15.1073 22.1154 15.2713 21.953C15.4352 21.7907 15.6298 21.6623 15.8435 21.5754C16.0574 21.4885 16.2861 21.4448 16.5169 21.4468C16.8573 21.4531 17.1884 21.5593 17.4687 21.7526C17.7489 21.9459 17.9662 22.2176 18.0929 22.5335C18.2197 22.8496 18.2503 23.1959 18.1813 23.5293C18.1122 23.8626 17.9464 24.1682 17.7046 24.408C17.4628 24.6476 17.1558 24.8107 16.8218 24.8768C16.4878 24.9429 16.1416 24.9091 15.8268 24.7795C15.5118 24.65 15.2423 24.4305 15.0515 24.1484C14.8607 23.8665 14.7573 23.5346 14.7542 23.194ZM15.3156 18.9352L15.0972 10.792C15.0764 10.5963 15.0972 10.3984 15.158 10.2111C15.2187 10.0239 15.3181 9.85151 15.4498 9.70518C15.5814 9.55883 15.7424 9.44183 15.9221 9.36173C16.102 9.28164 16.2967 9.24023 16.4934 9.24023C16.6903 9.24023 16.885 9.28164 17.0648 9.36173C17.2445 9.44183 17.4055 9.55883 17.5372 9.70518C17.6689 9.85151 17.7682 10.0239 17.8289 10.2111C17.8898 10.3984 17.9105 10.5963 17.8897 10.792L17.6869 18.9352C17.6869 19.2496 17.5621 19.5513 17.3397 19.7736C17.1174 19.9959 16.8157 20.1208 16.5014 20.1208C16.1869 20.1208 15.8853 19.9959 15.663 19.7736C15.4407 19.5513 15.3156 19.2496 15.3156 18.9352Z" fill="#199FD9"/>
<path d="M16.5001 31.5397C24.4695 31.5397 30.9301 25.0791 30.9301 17.1097C30.9301 9.14022 24.4695 2.67969 16.5001 2.67969C8.53061 2.67969 2.07007 9.14022 2.07007 17.1097C2.07007 25.0791 8.53061 31.5397 16.5001 31.5397Z" stroke="#199FD9" stroke-width="3.6" stroke-linecap="round" stroke-linejoin="round"/>
</svg>
