<svg width="28" height="28" viewBox="0 0 28 28" fill="none" xmlns="http://www.w3.org/2000/svg">
<path d="M26.1237 19.34C24.9734 18.127 23.3984 16.4089 23.3984 14.6558V9.07403C23.3984 4.26586 19.2518 0.353516 13.952 0.353516C8.65127 0.353516 4.53722 4.26586 4.53722 9.07403V14.6558C4.53722 16.379 2.82812 18.0074 1.7449 19.2716C0.770107 20.4068 0.000323266 21.3043 0.52074 22.2009C0.977091 22.9899 2.12142 23.0908 3.06664 23.0908H8.71435C8.71632 25.6073 11.069 27.6476 13.9708 27.6476C16.8725 27.6476 19.2272 25.6081 19.2282 23.0908H25.0079C25.6092 23.0908 27.0147 23.0908 27.4986 22.2035C27.9865 21.306 27.2059 20.4811 26.1237 19.34ZM13.9698 25.8569C12.2075 25.8569 10.7773 24.6191 10.7753 23.0916H17.1642C17.1613 24.6191 15.7331 25.8569 13.9698 25.8569ZM25.0079 21.2709H3.06566C2.91486 21.2709 2.78869 21.2667 2.6852 21.2607C2.88824 20.988 3.18591 20.6393 3.42936 20.3563C4.62987 18.957 6.63761 16.9808 6.63761 14.6558V9.07403C6.63761 5.26853 9.81137 2.17335 13.954 2.17335C18.0966 2.17335 21.3019 5.26938 21.3019 9.07403V14.6558C21.3019 17.0603 23.153 19.0699 24.5043 20.4957C24.732 20.7358 25.004 21.0231 25.2159 21.2692C25.1528 21.2709 25.0838 21.2718 25.0099 21.2718L25.0079 21.2709Z" fill="#363636"/>
</svg>
