<svg width="15" height="15" viewBox="0 0 15 15" fill="none" xmlns="http://www.w3.org/2000/svg">
<path d="M5.5 8C7.433 8 9 6.433 9 4.5C9 2.567 7.433 1 5.5 1C3.567 1 2 2.567 2 4.5C2 6.433 3.567 8 5.5 8Z" fill="#363636"/>
<path d="M9.17647 4.49824C9.17647 5.01367 9.09099 5.50859 8.93934 5.9713C9.0193 5.97716 9.09651 5.99766 9.17647 5.99766C10.7371 5.99766 12 4.65638 12 2.99883C12 1.34127 10.7371 0 9.17647 0C8.4568 0 7.80607 0.295783 7.30698 0.767279C8.43474 1.57849 9.17647 2.94612 9.17647 4.49824ZM4.94118 8.99649C1.41176 8.99649 0 9.74619 0 11.9953V15H9.88235V11.9953C9.88235 9.73155 8.47059 8.99649 4.94118 8.99649Z" fill="#363636"/>
<path d="M10.2572 8C9.8734 8 9.51875 8.01171 9.18527 8.0322C9.12439 8.10537 9.06352 8.17561 9 8.24293C10.6859 8.63805 12.2872 9.69171 12.2872 12.4956V14H15V10.9971C15 8.73463 13.6449 8 10.2572 8Z" fill="#363636"/>
</svg>
