<svg width="26" height="24" viewBox="0 0 26 24" fill="none" xmlns="http://www.w3.org/2000/svg">
<path d="M12.3337 11.9993H4.22496M3.99512 13.0623L2.65544 17.0641C1.92171 19.2559 1.55484 20.3517 1.81812 21.0265C2.04675 21.6127 2.5378 22.0569 3.14373 22.2261C3.84148 22.4208 4.89535 21.9465 7.00308 20.9981L20.5156 14.9175C22.5729 13.9916 23.6016 13.5288 23.9195 12.8857C24.1957 12.3271 24.1957 11.6715 23.9195 11.1128C23.6016 10.4699 22.5729 10.0069 20.5156 9.08115L6.97977 2.99006C4.87839 2.04444 3.82771 1.57163 3.13065 1.76559C2.52529 1.93403 2.03429 2.37716 1.80487 2.96214C1.54068 3.63572 1.90363 4.72923 2.62953 6.91624L3.99772 11.0384C4.12239 11.414 4.18473 11.6019 4.20933 11.7939C4.23117 11.9644 4.23095 12.1369 4.20868 12.3073C4.18357 12.4993 4.12076 12.6869 3.99512 13.0623Z" stroke="#356598" stroke-width="3" stroke-linecap="round" stroke-linejoin="round"/>
</svg>
