<svg width="23" height="19" viewBox="0 0 23 19" fill="none" xmlns="http://www.w3.org/2000/svg">
<path d="M17.7522 14.4489C17.5856 14.4489 17.4293 14.3968 17.2835 14.2926C16.9397 14.0322 16.8668 13.5426 17.1272 13.1989C18.7627 11.0218 18.7627 7.98013 17.1272 5.80302C16.8668 5.45927 16.9397 4.96969 17.2835 4.70927C17.6272 4.44885 18.1168 4.52177 18.3772 4.86552C20.4189 7.59472 20.4189 11.4072 18.3772 14.1364C18.221 14.3447 17.9918 14.4489 17.7522 14.4489Z" fill="white"/>
<path d="M19.6546 17.0518C19.4879 17.0518 19.3317 16.9997 19.1858 16.8955C18.8421 16.6351 18.7692 16.1455 19.0296 15.8018C21.8108 12.0934 21.8108 6.90588 19.0296 3.19755C18.7692 2.8538 18.8421 2.36422 19.1858 2.1038C19.5296 1.84338 20.0192 1.9163 20.2796 2.26005C23.4775 6.52047 23.4775 12.4788 20.2796 16.7393C20.1337 16.9476 19.8942 17.0518 19.6546 17.0518Z" fill="white"/>
<path d="M13.6048 0.939735C12.4381 0.293902 10.9486 0.460568 9.42773 1.40848L6.38607 3.31474C6.17773 3.43974 5.93815 3.51265 5.69857 3.51265H4.72982H4.20898C1.68815 3.51265 0.302734 4.89807 0.302734 7.41892V11.5856C0.302734 14.1064 1.68815 15.4918 4.20898 15.4918H4.72982H5.69857C5.93815 15.4918 6.17773 15.5648 6.38607 15.6898L9.42773 17.596C10.3444 18.1689 11.2402 18.4502 12.0736 18.4502C12.6152 18.4502 13.1361 18.3252 13.6048 18.0648C14.7611 17.4189 15.4069 16.0752 15.4069 14.2835V4.72099C15.4069 2.92932 14.7611 1.58557 13.6048 0.939735Z" fill="white"/>
</svg>
