<svg width="30" height="20" viewBox="0 0 30 20" fill="none" xmlns="http://www.w3.org/2000/svg">
<path d="M19.6137 3.35261V16.224H3.52449V3.35261H19.6137ZM21.2226 0.134766H1.91556C1.48885 0.134766 1.07961 0.304277 0.777883 0.606008C0.476152 0.90774 0.306641 1.31698 0.306641 1.74369V17.8329C0.306641 18.2596 0.476152 18.6689 0.777883 18.9706C1.07961 19.2723 1.48885 19.4418 1.91556 19.4418H21.2226C21.6493 19.4418 22.0586 19.2723 22.3603 18.9706C22.662 18.6689 22.8316 18.2596 22.8316 17.8329V12.2017L29.2672 18.6374V0.939227L22.8316 7.37492V1.74369C22.8316 1.31698 22.662 0.90774 22.3603 0.606008C22.0586 0.304277 21.6493 0.134766 21.2226 0.134766Z" fill="white"/>
</svg>
