<svg width="18" height="17" viewBox="0 0 18 17" fill="none" xmlns="http://www.w3.org/2000/svg">
<path d="M14 3.16602V1.49935C14 1.27834 13.9122 1.06637 13.7559 0.910093C13.5996 0.753813 13.3876 0.666016 13.1666 0.666016C12.9456 0.666016 12.7336 0.753813 12.5774 0.910093C12.4211 1.06637 12.3333 1.27834 12.3333 1.49935V3.16602H5.66663V1.49935C5.66663 1.27834 5.57883 1.06637 5.42255 0.910093C5.26627 0.753813 5.05431 0.666016 4.83329 0.666016C4.61228 0.666016 4.40032 0.753813 4.24404 0.910093C4.08776 1.06637 3.99996 1.27834 3.99996 1.49935V3.16602H0.666626V16.4993H17.3333V3.16602H14ZM15.6666 14.8327H2.33329V4.83268H15.6666V14.8327ZM6.49996 7.33268H4.83329V8.99935H6.49996V7.33268ZM6.49996 10.666H4.83329V12.3327H6.49996V10.666ZM13.1666 7.33268H8.16663V8.99935H13.1666V7.33268ZM13.1666 10.666H8.16663V12.3327H13.1666V10.666Z" fill="#363636"/>
</svg>
