<svg width="23" height="26" viewBox="0 0 23 26" fill="none" xmlns="http://www.w3.org/2000/svg">
<path d="M16.0005 6.99948L5.58804 17.587C5.24332 17.9674 5.05811 18.4659 5.07075 18.9791C5.08338 19.4923 5.2929 19.9811 5.65593 20.3441C6.01895 20.7071 6.50767 20.9166 7.02091 20.9293C7.53415 20.9419 8.03259 20.7567 8.41304 20.412L20.8255 7.82448C21.515 7.06358 21.8854 6.06669 21.8601 5.04022C21.8349 4.01374 21.4158 3.03629 20.6898 2.31025C19.9637 1.5842 18.9863 1.16516 17.9598 1.13989C16.9333 1.11461 15.9364 1.48504 15.1755 2.17448L2.76304 14.762C1.63919 15.8858 1.00781 17.4101 1.00781 18.9995C1.00781 20.5889 1.63919 22.1131 2.76304 23.237C3.8869 24.3608 5.41117 24.9922 7.00054 24.9922C8.58991 24.9922 10.1142 24.3608 11.238 23.237L21.5005 12.9995" stroke="#858484" stroke-width="2" stroke-linecap="round" stroke-linejoin="round"/>
</svg>
