<svg width="35" height="35" viewBox="0 0 35 35" fill="none" xmlns="http://www.w3.org/2000/svg">
<path d="M11.668 2.91602V7.29102" stroke="#1C2A3A" stroke-width="1.5" stroke-miterlimit="10" stroke-linecap="round" stroke-linejoin="round"/>
<path d="M23.332 2.91602V7.29102" stroke="#1C2A3A" stroke-width="1.5" stroke-miterlimit="10" stroke-linecap="round" stroke-linejoin="round"/>
<path d="M5.10547 13.2559H29.8971" stroke="#1C2A3A" stroke-width="1.5" stroke-miterlimit="10" stroke-linecap="round" stroke-linejoin="round"/>
<path d="M28.0154 22.9977L22.8529 28.1603C22.6488 28.3644 22.4592 28.7436 22.4154 29.0207L22.1383 30.9894C22.0362 31.704 22.5321 32.1999 23.2467 32.0978L25.2154 31.8207C25.4925 31.7769 25.8863 31.5873 26.0758 31.3832L31.2383 26.2207C32.1279 25.3311 32.5508 24.2957 31.2383 22.9832C29.9404 21.6853 28.905 22.1082 28.0154 22.9977Z" stroke="#1C2A3A" stroke-width="1.5" stroke-miterlimit="10" stroke-linecap="round" stroke-linejoin="round"/>
<path d="M27.2715 23.7422C27.709 25.3172 28.934 26.5422 30.509 26.9797" stroke="#1C2A3A" stroke-width="1.5" stroke-miterlimit="10" stroke-linecap="round" stroke-linejoin="round"/>
<path d="M17.5 32.0827H11.6667C6.5625 32.0827 4.375 29.166 4.375 24.791V12.3952C4.375 8.02018 6.5625 5.10352 11.6667 5.10352H23.3333C28.4375 5.10352 30.625 8.02018 30.625 12.3952V17.4993" stroke="#1C2A3A" stroke-width="1.5" stroke-miterlimit="10" stroke-linecap="round" stroke-linejoin="round"/>
<path d="M17.4946 19.9792H17.5077" stroke="#1C2A3A" stroke-width="2" stroke-linecap="round" stroke-linejoin="round"/>
<path d="M12.0962 19.9792H12.1093" stroke="#1C2A3A" stroke-width="2" stroke-linecap="round" stroke-linejoin="round"/>
<path d="M12.0962 24.3542H12.1093" stroke="#1C2A3A" stroke-width="2" stroke-linecap="round" stroke-linejoin="round"/>
</svg>
