<svg width="9" height="14" viewBox="0 0 9 14" fill="none" xmlns="http://www.w3.org/2000/svg">
<path d="M0.80732 12.8082C0.749252 12.8662 0.703189 12.9352 0.671763 13.011C0.640336 13.0869 0.62416 13.1682 0.62416 13.2503C0.62416 13.3325 0.640336 13.4138 0.671763 13.4897C0.703189 13.5655 0.749252 13.6345 0.80732 13.6925C0.865389 13.7506 0.934327 13.7967 1.0102 13.8281C1.08607 13.8595 1.16739 13.8757 1.24951 13.8757C1.33163 13.8757 1.41295 13.8595 1.48882 13.8281C1.56469 13.7967 1.63363 13.7506 1.6917 13.6925L7.9417 7.44254C7.99981 7.38449 8.04591 7.31556 8.07736 7.23969C8.10881 7.16381 8.125 7.08248 8.125 7.00035C8.125 6.91821 8.10881 6.83688 8.07736 6.76101C8.04591 6.68514 7.99981 6.61621 7.9417 6.55816L1.6917 0.30816C1.57442 0.190885 1.41536 0.125 1.24951 0.125C1.08366 0.125 0.924596 0.190885 0.80732 0.30816C0.690045 0.425435 0.62416 0.584495 0.62416 0.750347C0.62416 0.9162 0.690045 1.07526 0.80732 1.19253L6.61591 7.00035L0.80732 12.8082Z" fill="black"/>
</svg>
