<?xml version="1.0" encoding="UTF-8"?>
<svg version="1.1" xmlns="http://www.w3.org/2000/svg" width="48" height="48">
<path d="M0 0 C13.2 0 26.4 0 40 0 C40.20625 6.06375 40.4125 12.1275 40.625 18.375 C40.76156006 21.21424072 40.76156006 21.21424072 40.90087891 24.11083984 C41.1243459 31.79970078 41.15184025 38.05969868 35.9375 44.1875 C29.32168918 49.55411424 22.52528834 49.12799431 14.375 48.625 C9.63125 48.41875 4.8875 48.2125 0 48 C0 32.16 0 16.32 0 0 Z M4 4 C4 5.32 4 6.64 4 8 C14.56 8 25.12 8 36 8 C36 6.68 36 5.36 36 4 C25.44 4 14.88 4 4 4 Z M4 12 C4 22.56 4 33.12 4 44 C10.6 44 17.2 44 24 44 C24 40.04 24 36.08 24 32 C27.96 32 31.92 32 36 32 C36 25.4 36 18.8 36 12 C25.44 12 14.88 12 4 12 Z M28 36 C28 37.98 28 39.96 28 42 C30.02054804 40.35830472 32.02043058 38.69088222 34 37 C34 36.67 34 36.34 34 36 C32.02 36 30.04 36 28 36 Z " fill="#353535" transform="translate(4,0)"/>
<path d="M0 0 C7.92 0 15.84 0 24 0 C24 1.32 24 2.64 24 4 C16.08 4 8.16 4 0 4 C0 2.68 0 1.36 0 0 Z " fill="#363636" transform="translate(12,24)"/>
<path d="M0 0 C6.6 0 13.2 0 20 0 C20 1.32 20 2.64 20 4 C13.4 4 6.8 4 0 4 C0 2.68 0 1.36 0 0 Z " fill="#363636" transform="translate(12,16)"/>
<path d="M0 0 C3.3 0 6.6 0 10 0 C10 1.32 10 2.64 10 4 C6.7 4 3.4 4 0 4 C0 2.68 0 1.36 0 0 Z " fill="#363636" transform="translate(12,32)"/>
</svg>
