<svg width="17" height="13" viewBox="0 0 17 13" fill="none" xmlns="http://www.w3.org/2000/svg">
<path fill-rule="evenodd" clip-rule="evenodd" d="M8.49995 4.28906C7.09159 4.28906 5.94995 5.4307 5.94995 6.83906C5.94995 8.24743 7.09159 9.38906 8.49995 9.38906C9.90832 9.38906 11.05 8.24743 11.05 6.83906C11.05 5.4307 9.90832 4.28906 8.49995 4.28906ZM7.64995 6.83906C7.64995 6.36961 8.0305 5.98906 8.49995 5.98906C8.96941 5.98906 9.34995 6.36961 9.34995 6.83906C9.34995 7.30852 8.96941 7.68906 8.49995 7.68906C8.0305 7.68906 7.64995 7.30852 7.64995 6.83906Z" fill="white"/>
<path fill-rule="evenodd" clip-rule="evenodd" d="M16.8555 6.22727C14.9107 2.71775 11.7404 0.888672 8.5 0.888672C5.25961 0.888672 2.08927 2.71775 0.144526 6.22727C-0.0455848 6.57041 -0.0479309 6.99346 0.136247 7.33813C2.05006 10.9198 5.23838 12.7887 8.5 12.7887C11.7616 12.7887 14.95 10.9198 16.8637 7.33813C17.0479 6.99346 17.0456 6.57041 16.8555 6.22727ZM8.5 11.0887C6.00183 11.0887 3.43444 9.70521 1.77797 6.79507C3.45833 3.94539 6.01221 2.58867 8.5 2.58867C10.9878 2.58867 13.5417 3.94539 15.2221 6.79507C13.5656 9.70521 10.9982 11.0887 8.5 11.0887Z" fill="white"/>
</svg>
