<svg width="28" height="23" viewBox="0 0 28 23" fill="none" xmlns="http://www.w3.org/2000/svg">
<path opacity="0.5" d="M2.65284 15.6844C1.55094 14.2489 1 13.5312 1 11.4C1 9.26878 1.55094 8.55109 2.65284 7.11563C4.85302 4.24943 8.54293 1 13.9646 1C19.3862 1 23.0761 4.24943 25.2763 7.11563C26.3782 8.55109 26.9292 9.26878 26.9292 11.4C26.9292 13.5312 26.3782 14.2489 25.2763 15.6844C23.0761 18.5505 19.3862 21.8 13.9646 21.8C8.54293 21.8 4.85302 18.5505 2.65284 15.6844Z" stroke="#199FD9" stroke-width="2"/>
<path d="M17.8539 11.4C17.8539 13.554 16.1127 15.3 13.9646 15.3C11.8165 15.3 10.0752 13.554 10.0752 11.4C10.0752 9.24603 11.8165 7.5 13.9646 7.5C16.1127 7.5 17.8539 9.24603 17.8539 11.4Z" stroke="#199FD9" stroke-width="2"/>
</svg>
