<svg width="30" height="43" viewBox="0 0 30 43" fill="none" xmlns="http://www.w3.org/2000/svg">
<path d="M0.795703 2.25586C0.795703 1.53789 1.37773 0.955859 2.0957 0.955859H21.234C21.6116 0.955859 21.9706 1.1201 22.2176 1.40586L29.2184 9.50721C29.4225 9.74337 29.5348 10.0451 29.5348 10.3572V40.7437C29.5348 41.4616 28.9527 42.0437 28.2348 42.0437H2.0957C1.37773 42.0437 0.795703 41.4616 0.795703 40.7437V2.25586Z" fill="white" stroke="#D1D1D6" stroke-width="0.4"/>
<mask id="path-2-inside-1_4095_10702" fill="white">
<path fill-rule="evenodd" clip-rule="evenodd" d="M22.625 10.7437C21.7966 10.7437 21.125 10.0721 21.125 9.24366V0.755859H21.2335H21.2335C21.6148 0.75586 21.9796 0.900954 22.2557 1.15812C22.2952 1.19485 22.3328 1.23388 22.3684 1.27509L29.3692 9.37644C29.6047 9.64893 29.7343 9.99706 29.7343 10.3572V10.7437H22.625Z"/>
</mask>
<path fill-rule="evenodd" clip-rule="evenodd" d="M22.625 10.7437C21.7966 10.7437 21.125 10.0721 21.125 9.24366V0.755859H21.2335H21.2335C21.6148 0.75586 21.9796 0.900954 22.2557 1.15812C22.2952 1.19485 22.3328 1.23388 22.3684 1.27509L29.3692 9.37644C29.6047 9.64893 29.7343 9.99706 29.7343 10.3572V10.7437H22.625Z" fill="#EFEFEF"/>
<path d="M21.125 0.755859V0.355859H20.725V0.755859H21.125ZM21.2335 0.755859L21.2335 0.355859H21.2335V0.755859ZM22.2557 1.15812L22.5283 0.8654V0.8654L22.2557 1.15812ZM22.3684 1.27509L22.0658 1.53663L22.0658 1.53663L22.3684 1.27509ZM29.3692 9.37644L29.0666 9.63798V9.63798L29.3692 9.37644ZM29.7343 10.7437V11.1437H30.1343V10.7437H29.7343ZM20.725 9.24366C20.725 10.293 21.5757 11.1437 22.625 11.1437V10.3437C22.0175 10.3437 21.525 9.85118 21.525 9.24366H20.725ZM20.725 0.755859V9.24366H21.525V0.755859H20.725ZM21.2335 0.355859H21.125V1.15586H21.2335V0.355859ZM21.2335 0.355859H21.2335V1.15586H21.2335V0.355859ZM22.5283 0.8654C22.1785 0.539653 21.7165 0.35586 21.2335 0.355859L21.2335 1.15586C21.5131 1.15586 21.7806 1.26226 21.9831 1.45083L22.5283 0.8654ZM22.6711 1.01356C22.626 0.961369 22.5783 0.91194 22.5283 0.8654L21.9831 1.45083C22.012 1.47777 22.0396 1.50639 22.0658 1.53663L22.6711 1.01356ZM29.6719 9.1149L22.6711 1.01355L22.0658 1.53663L29.0666 9.63798L29.6719 9.1149ZM30.1343 10.3572C30.1343 9.90102 29.9701 9.46006 29.6719 9.1149L29.0666 9.63798C29.2393 9.83781 29.3343 10.0931 29.3343 10.3572H30.1343ZM30.1343 10.7437V10.3572H29.3343V10.7437H30.1343ZM22.625 11.1437H29.7343V10.3437H22.625V11.1437Z" fill="#D1D1D6" mask="url(#path-2-inside-1_4095_10702)"/>
<path d="M11.9863 14.7396V15.9689H21.6552V14.7396H11.9863Z" fill="#199FD9"/>
<path d="M8.67578 28.5677V29.797H18.3447V28.5677H8.67578Z" fill="#199FD9"/>
<path d="M8.67578 19.349V20.5782H21.6559V19.349H8.67578Z" fill="#199FD9"/>
<path d="M8.67578 23.9583V25.1876H21.6559V23.9583H8.67578Z" fill="#199FD9"/>
</svg>
