<svg width="28" height="32" viewBox="0 0 28 32" fill="none" xmlns="http://www.w3.org/2000/svg">
<path fill-rule="evenodd" clip-rule="evenodd" d="M17.5443 0.328125V9.51365H27.1054V31.5589H0.334473V0.328125H17.5443ZM12.7198 11.3507C12.4349 11.3507 12.1787 11.4738 11.9932 11.6924C11.1499 12.6679 11.4616 14.832 11.6758 16.118C11.7235 16.4101 11.6834 16.7059 11.5534 16.9723L9.72719 20.7659C9.59336 21.0415 9.37918 21.2638 9.10765 21.4089C7.95458 22.0243 6.02135 22.8675 5.78806 24.3795C5.70391 24.8718 5.8741 25.2962 6.27184 25.6783C6.54147 25.9245 6.86846 26.0476 7.22413 26.0476C8.60282 26.0476 9.47289 24.881 10.4118 23.6318C10.8286 23.0751 11.4559 22.7334 12.1461 22.6416C13.4388 22.4707 14.9877 22.1125 15.9247 21.8773C16.397 21.7579 16.8789 21.7873 17.3435 21.9288C18.1658 22.1823 18.4775 22.3366 19.4221 22.3366C20.2749 22.3366 20.8582 22.1455 21.1412 21.7763C21.3687 21.5026 21.4242 21.1333 21.3133 20.7089C21.1125 20.0127 21.2789 19.2503 19.0607 19.2503C18.5635 19.2503 18.0797 19.2962 17.6763 19.3495C17.0529 19.4303 16.4352 19.1713 16.0337 18.6844C15.4868 18.0249 14.9303 17.246 14.5441 16.6802C14.2706 16.2815 14.1788 15.802 14.2687 15.3281C14.5307 13.9502 14.5804 12.927 13.871 11.9662C13.5727 11.5565 13.173 11.3507 12.7198 11.3507ZM19.4567 0.602012L26.8206 7.67671H19.4567V0.602012Z" fill="#363636"/>
</svg>
