<svg width="22" height="25" viewBox="0 0 22 25" fill="none" xmlns="http://www.w3.org/2000/svg">
<path d="M10.722 15.1902V17.6207M4.64575 9.75659C5.21864 9.72159 5.92491 9.72159 6.8332 9.72159H14.6108C15.5191 9.72159 16.2254 9.72159 16.7983 9.75659M4.64575 9.75659C3.93079 9.80022 3.42356 9.89841 2.99062 10.119C2.30462 10.4685 1.74689 11.0262 1.39736 11.7122C1 12.4921 1 13.5129 1 15.5548V17.2561C1 19.298 1 20.3188 1.39736 21.0988C1.74689 21.7848 2.30462 22.3425 2.99062 22.692C3.77048 23.0893 4.79139 23.0893 6.8332 23.0893H14.6108C16.6527 23.0893 17.6735 23.0893 18.4534 22.692C19.1394 22.3425 19.6971 21.7848 20.0466 21.0988C20.444 20.3188 20.444 19.298 20.444 17.2561V15.5548C20.444 13.5129 20.444 12.4921 20.0466 11.7122C19.6971 11.0262 19.1394 10.4685 18.4534 10.119C18.0204 9.89841 17.5132 9.80022 16.7983 9.75659M4.64575 9.75659V7.29109C4.64575 3.93528 7.36618 1.21484 10.722 1.21484C14.0778 1.21484 16.7983 3.93528 16.7983 7.29109V9.75659" stroke="#858484" stroke-width="2" stroke-linecap="round" stroke-linejoin="round"/>
</svg>
