<svg width="22" height="29" viewBox="0 0 22 29" fill="none" xmlns="http://www.w3.org/2000/svg">
<path d="M21.061 12.9949C21.061 12.858 20.949 12.746 20.8121 12.746H18.9454C18.8085 12.746 18.6965 12.858 18.6965 12.9949C18.6965 17.3598 15.1591 20.8972 10.7942 20.8972C6.42922 20.8972 2.89183 17.3598 2.89183 12.9949C2.89183 12.858 2.77982 12.746 2.64293 12.746H0.776237C0.639346 12.746 0.527344 12.858 0.527344 12.9949C0.527344 18.2434 4.46607 22.5741 9.54971 23.187V26.3729H5.0292C4.60297 26.3729 4.26074 26.8178 4.26074 27.3684V28.4884C4.26074 28.6253 4.34785 28.7373 4.45363 28.7373H17.1347C17.2405 28.7373 17.3276 28.6253 17.3276 28.4884V27.3684C17.3276 26.8178 16.9854 26.3729 16.5592 26.3729H11.9142V23.2026C17.0569 22.6426 21.061 18.2869 21.061 12.9949ZM10.7942 18.2838C13.7156 18.2838 16.0832 15.9442 16.0832 13.0571V6.08808C16.0832 3.20092 13.7156 0.861328 10.7942 0.861328C7.8728 0.861328 5.5052 3.20092 5.5052 6.08808V13.0571C5.5052 15.9442 7.8728 18.2838 10.7942 18.2838ZM7.86969 6.08808C7.86969 4.51383 9.17326 3.22581 10.7942 3.22581C12.4151 3.22581 13.7187 4.51383 13.7187 6.08808V13.0571C13.7187 14.6313 12.4151 15.9194 10.7942 15.9194C9.17326 15.9194 7.86969 14.6313 7.86969 13.0571V6.08808Z" fill="white"/>
</svg>
