<svg width="14" height="16" viewBox="0 0 14 16" fill="none" xmlns="http://www.w3.org/2000/svg">
<path fill-rule="evenodd" clip-rule="evenodd" d="M12.2505 11.0769V6.97436C12.2505 4.45538 10.8242 2.34667 8.31299 1.78872V1.23077C8.31299 0.549744 7.72679 0 7.00049 0C6.27419 0 5.68799 0.549744 5.68799 1.23077V1.78872C3.18549 2.34667 1.75049 4.44718 1.75049 6.97436V11.0769L0.000488281 12.7179V13.5385H14.0005V12.7179L12.2505 11.0769ZM7.00049 16C7.96299 16 8.75049 15.2615 8.75049 14.359H5.25049C5.25049 15.2615 6.03799 16 7.00049 16ZM3.50049 11.8974H10.5005V6.97436C10.5005 4.93949 9.17929 3.28205 7.00049 3.28205C4.82174 3.28205 3.50049 4.93949 3.50049 6.97436V11.8974Z" fill="#363636"/>
</svg>
