<svg width="20" height="20" viewBox="0 0 20 20" fill="none" xmlns="http://www.w3.org/2000/svg">
<path d="M15.6334 2.37583H13.4859V3.39333H15.6334H15.6392C16.1851 3.39333 16.6276 3.83583 16.6276 4.38167V4.38833V17.9933V17.9992C16.6276 18.5458 16.1842 18.9883 15.6384 18.9883C15.6367 18.9883 15.6342 18.9883 15.6326 18.9883H4.50673C4.50506 18.9883 4.50256 18.9883 4.50089 18.9883C3.95423 18.9883 3.51173 18.545 3.51173 17.9992C3.51173 17.9967 3.51173 17.995 3.51173 17.9925V4.3875C3.51173 4.38583 3.51173 4.38333 3.51173 4.38167C3.51173 3.835 3.95506 3.3925 4.50089 3.3925H4.50673H6.65423V2.37583H4.50673C3.39756 2.37583 2.49756 3.27583 2.49756 4.385V17.99C2.49839 19.0992 3.39756 19.9983 4.50673 19.9983H15.6326C16.7417 19.9983 17.6417 19.0983 17.6417 17.9892V4.38417C17.6417 3.275 16.7417 2.375 15.6326 2.375L15.6334 2.37583Z" fill="#363636"/>
<path d="M13.0041 1.85417H11.905C11.905 0.83 11.075 0 10.0508 0C9.02665 0 8.19665 0.83 8.19665 1.85417H7.10498V4.40167H12.9991V1.85417H13.0041ZM11.1225 1.85417H8.98081C8.98081 1.84583 8.98081 1.83667 8.98081 1.8275C8.98081 1.23583 9.46081 0.755833 10.0525 0.755833C10.6441 0.755833 11.1241 1.23583 11.1241 1.8275V1.85583V1.85417H11.1225Z" fill="#363636"/>
<path d="M7.45581 7.09375H15.3375V8.06875H7.45581V7.09375Z" fill="#363636"/>
<path d="M7.45581 11.1758H15.3375V12.1508H7.45581V11.1758Z" fill="#363636"/>
<path d="M7.45581 15.209H15.3375V16.189H7.45581V15.209Z" fill="#363636"/>
<path d="M4.68994 6.46484H6.92327V8.69818H4.68994V6.46484Z" fill="#363636"/>
<path d="M4.68994 10.5449H6.92327V12.7783H4.68994V10.5449Z" fill="#363636"/>
<path d="M4.68994 14.5801H6.92327V16.8134H4.68994V14.5801Z" fill="#363636"/>
</svg>
