<svg width="15" height="16" viewBox="0 0 15 16" fill="none" xmlns="http://www.w3.org/2000/svg">
<path fill-rule="evenodd" clip-rule="evenodd" d="M10.3125 8.46875H7.96875V10.8125C7.96875 11.0703 7.75922 11.2812 7.5 11.2812C7.24078 11.2812 7.03125 11.0703 7.03125 10.8125V8.46875H4.6875C4.42828 8.46875 4.21875 8.25781 4.21875 8C4.21875 7.74219 4.42828 7.53125 4.6875 7.53125H7.03125V5.1875C7.03125 4.92969 7.24078 4.71875 7.5 4.71875C7.75922 4.71875 7.96875 4.92969 7.96875 5.1875V7.53125H10.3125C10.5717 7.53125 10.7812 7.74219 10.7812 8C10.7812 8.25781 10.5717 8.46875 10.3125 8.46875ZM7.5 0.5C3.35766 0.5 0 3.85625 0 8C0 12.1438 3.35766 15.5 7.5 15.5C11.6423 15.5 15 12.1438 15 8C15 3.85625 11.6423 0.5 7.5 0.5Z" fill="white"/>
</svg>
