<svg width="18" height="18" viewBox="0 0 18 18" fill="none" xmlns="http://www.w3.org/2000/svg">
<path d="M14.8123 14.0529C13.7338 15.2935 12.2869 16.1568 10.6829 16.5168C9.07896 16.8768 7.40191 16.7146 5.89666 16.0539C4.39142 15.393 3.13689 14.2683 2.31625 12.8438C1.49561 11.4194 1.15187 9.76987 1.33521 8.1362C1.5184 6.50238 2.21917 4.96993 3.33517 3.76267C4.45116 2.5554 5.92392 1.73658 7.53833 1.42578M10.4581 1.43203C11.5422 1.64082 12.5689 2.08006 13.4685 2.72002C14.3682 3.35999 15.1199 4.18574 15.6727 5.14141C16.2256 6.09708 16.5667 7.16038 16.673 8.25934C16.7793 9.3583 16.6483 10.4673 16.2889 11.5112" stroke="#363636" stroke-width="1.25" stroke-linecap="round"/>
<path d="M7.33301 8.58398V7.0944C7.33301 6.19117 8.07915 5.45898 8.99967 5.45898C9.9202 5.45898 10.6663 6.19117 10.6663 7.0944V8.58398M6.91634 8.58398H11.083C11.5447 8.58398 11.9163 8.95565 11.9163 9.41732V11.709C11.9163 12.1707 11.5447 12.5423 11.083 12.5423H6.91634C6.45467 12.5423 6.08301 12.1707 6.08301 11.709V9.41732C6.08301 8.95565 6.45467 8.58398 6.91634 8.58398Z" stroke="#363636" stroke-width="1.25"/>
</svg>
