<svg width="17" height="17" viewBox="0 0 17 17" fill="none" xmlns="http://www.w3.org/2000/svg">
<path d="M17 2.07395C16.9997 2.62333 16.7916 3.15013 16.4214 3.53872C16.0511 3.92731 15.5491 4.14594 15.0253 4.14662H14.4059V14.9286C14.4053 15.4778 14.197 16.0042 13.8268 16.3926C13.4566 16.7809 12.9548 16.9993 12.4312 17H1.97526C1.71587 17 1.45901 16.9464 1.21936 16.8423C0.979713 16.7381 0.761962 16.5855 0.578541 16.3931C0.395121 16.2007 0.249624 15.9723 0.150358 15.7209C0.0510917 15.4695 0 15.2001 0 14.928C0 14.6559 0.0510917 14.3864 0.150358 14.135C0.249624 13.8837 0.395121 13.6552 0.578541 13.4628C0.761962 13.2704 0.979713 13.1178 1.21936 13.0137C1.45901 12.9095 1.71587 12.8559 1.97526 12.8559H2.59349V2.07395C2.59349 1.52413 2.80162 0.996806 3.17214 0.607901C3.54265 0.218996 4.04522 0.000340448 4.56937 0H15.0241C15.5481 0.000340205 16.0504 0.218819 16.4209 0.607447C16.7914 0.996074 16.9997 1.52307 17 2.07267V2.07395ZM1.97526 15.5771H10.5533C10.4209 15.1559 10.4209 14.7013 10.5533 14.2801H1.97771C1.81375 14.2801 1.6565 14.3484 1.54056 14.47C1.42462 14.5917 1.35949 14.7566 1.35949 14.9286C1.35949 15.1006 1.42462 15.2656 1.54056 15.3872C1.6565 15.5088 1.81375 15.5771 1.97771 15.5771H1.97526ZM13.0482 2.07395C13.048 1.85371 13.081 1.63481 13.1462 1.42544H4.57059C4.43296 1.42519 4.29926 1.47359 4.19109 1.56285L4.18864 1.56413C4.11469 1.62448 4.05493 1.70182 4.01396 1.79021C3.973 1.8786 3.95193 1.97567 3.95236 2.07395V12.8559H11.7102C11.8793 12.8539 12.044 12.9121 12.1774 13.0211C12.3108 13.13 12.4051 13.2832 12.4447 13.4557C12.4912 13.6207 12.4865 13.797 12.4313 13.959C12.3761 14.121 12.2731 14.2605 12.1374 14.3572C12.0415 14.4118 11.9611 14.4921 11.9044 14.5899C11.8476 14.6877 11.8166 14.7995 11.8144 14.914C11.8122 15.0284 11.8389 15.1415 11.8918 15.2416C11.9448 15.3417 12.022 15.4253 12.1158 15.484C12.2095 15.5427 12.3164 15.5742 12.4255 15.5755C12.5346 15.5768 12.6421 15.5478 12.7371 15.4914C12.8321 15.4349 12.9111 15.3532 12.9662 15.2543C13.0213 15.1555 13.0504 15.0431 13.0507 14.9286L13.0482 2.07395ZM11.9954 3.92061H4.94397V5.3422H11.9954V3.92061ZM11.9954 6.82286H4.94397V8.24445H11.9954V6.82286ZM11.9954 9.72511H4.94397V11.148H11.9954V9.72511ZM15.6424 2.07395C15.642 1.90206 15.5768 1.73731 15.4609 1.61576C15.345 1.49422 15.188 1.42578 15.0241 1.42544C14.8864 1.42478 14.7526 1.47323 14.6446 1.56285H14.6422C14.5679 1.62326 14.5079 1.70077 14.4667 1.78939C14.4255 1.87801 14.4043 1.97537 14.4047 2.07395V2.72247H15.0241C15.188 2.72213 15.345 2.65369 15.4609 2.53215C15.5768 2.4106 15.642 2.24585 15.6424 2.07395Z" fill="#363636"/>
</svg>
