<svg width="60" height="60" viewBox="0 0 60 60" fill="none" xmlns="http://www.w3.org/2000/svg">
<path d="M30 30C38.2852 30 45 23.2852 45 15C45 6.71484 38.2852 0 30 0C21.7148 0 15 6.71484 15 15C15 23.2852 21.7148 30 30 30ZM41.2266 33.8203L35.625 56.25L31.875 40.3125L35.625 33.75H24.375L28.125 40.3125L24.375 56.25L18.7734 33.8203C10.418 34.2188 3.75 41.0508 3.75 49.5V54.375C3.75 57.4805 6.26953 60 9.375 60H50.625C53.7305 60 56.25 57.4805 56.25 54.375V49.5C56.25 41.0508 49.582 34.2188 41.2266 33.8203Z" fill="black"/>
</svg>
