<svg width="12" height="14" viewBox="0 0 12 14" fill="none" xmlns="http://www.w3.org/2000/svg">
<path d="M9.51424 4.80172C10.6275 5.49893 11.1841 5.84753 11.375 6.29392C11.5417 6.68366 11.5417 7.12493 11.375 7.51475C11.1841 7.96105 10.6275 8.30965 9.51424 9.00692L4.28564 12.2817C3.05009 13.0555 2.43231 13.4425 1.9225 13.4013C1.47812 13.3655 1.07077 13.1394 0.804954 12.7807C0.5 12.3692 0.5 11.6392 0.5 10.1791V3.62954C0.5 2.16946 0.5 1.43942 0.804954 1.02796C1.07077 0.669306 1.47812 0.443062 1.9225 0.407257C2.43231 0.36619 3.05009 0.753112 4.28564 1.52696L9.51424 4.80172Z" fill="white" fill-opacity="0.8"/>
</svg>
